<svg version="1.1" id="Layer_1" xmlns="http://www.w3.org/2000/svg" xmlns:xlink="http://www.w3.org/1999/xlink" x="0px" y="0px"
	 width="100%" viewBox="0 0 2000 1500" enable-background="new 0 0 2000 1500" xml:space="preserve">
<path fill="#121212" opacity="1.000000" stroke="none" 
	d="
M1046.000000,1501.000000 
	C697.333435,1501.000000 349.166870,1501.000000 1.000234,1501.000000 
	C1.000156,1001.000244 1.000156,501.000519 1.000078,1.000569 
	C667.666199,1.000379 1334.332397,1.000379 2000.999023,1.000190 
	C2000.999268,500.999390 2000.999268,1000.998779 2000.999634,1500.999023 
	C1682.833374,1501.000000 1364.666626,1501.000000 1046.000000,1501.000000 
M1032.339722,1249.903687 
	C1052.974487,1247.303955 1073.802979,1245.740723 1094.210815,1241.926636 
	C1187.012939,1224.582397 1268.568115,1183.901733 1337.924072,1120.005249 
	C1428.614868,1036.453369 1481.842651,933.115967 1497.205444,810.564453 
	C1503.958496,756.694275 1501.746094,703.078857 1490.578613,650.017639 
	C1467.789673,541.738708 1415.505371,449.928741 1332.256348,377.073975 
	C1218.812256,277.794128 1086.143921,238.022842 936.574341,255.344193 
	C885.478455,261.261475 836.669067,276.028961 789.992737,297.795563 
	C633.224121,370.901642 525.406067,519.581421 504.771149,691.193970 
	C497.330078,753.078491 501.094543,814.273071 516.639709,874.601685 
	C542.533447,975.091797 594.831543,1059.543335 672.802551,1127.884644 
	C729.259888,1177.369141 793.878601,1212.122314 866.241150,1232.368042 
	C920.307495,1247.494751 975.362366,1253.226196 1032.339722,1249.903687 
z"/>
<path fill="#FF4A3E" opacity="1.000000" stroke="none" 
	d="
M1031.860962,1249.924316 
	C975.362366,1253.226196 920.307495,1247.494751 866.241150,1232.368042 
	C793.878601,1212.122314 729.259888,1177.369141 672.802551,1127.884644 
	C594.831543,1059.543335 542.533447,975.091797 516.639709,874.601685 
	C501.094543,814.273071 497.330078,753.078491 504.771149,691.193970 
	C525.406067,519.581421 633.224121,370.901642 789.992737,297.795563 
	C836.669067,276.028961 885.478455,261.261475 936.574341,255.344193 
	C1086.143921,238.022842 1218.812256,277.794128 1332.256348,377.073975 
	C1415.505371,449.928741 1467.789673,541.738708 1490.578613,650.017639 
	C1501.746094,703.078857 1503.958496,756.694275 1497.205444,810.564453 
	C1481.842651,933.115967 1428.614868,1036.453369 1337.924072,1120.005249 
	C1268.568115,1183.901733 1187.012939,1224.582397 1094.210815,1241.926636 
	C1073.802979,1245.740723 1052.974487,1247.303955 1031.860962,1249.924316 
M859.815369,505.305420 
	C850.179443,514.214844 839.456055,522.215454 831.109192,532.202271 
	C804.823914,563.651917 795.975037,600.640381 799.456726,640.967590 
	C800.915466,657.863342 804.506042,674.292969 812.718140,689.264221 
	C828.980591,718.911682 853.862549,739.583618 884.401123,752.596375 
	C906.505615,762.015259 929.675537,769.213928 952.813232,775.861206 
	C986.855835,785.641418 1021.341492,793.868652 1055.543335,803.109741 
	C1074.740479,808.296631 1093.177734,815.386719 1109.310791,827.519409 
	C1121.009277,836.316956 1131.062622,846.487793 1134.973755,860.981934 
	C1143.020508,890.802490 1137.026367,917.066956 1113.667603,938.296753 
	C1098.175903,952.376404 1079.403076,959.910767 1059.223633,963.976379 
	C1014.749573,972.936768 970.395264,971.641052 926.492188,960.477966 
	C885.883667,950.152588 848.140259,933.667969 816.022278,905.958496 
	C815.690796,905.672546 815.129150,905.653442 814.460571,905.441956 
	C805.449890,924.433777 796.577698,943.415955 787.396057,962.247192 
	C785.565491,966.001526 785.770935,968.127686 789.078735,970.949097 
	C811.831909,990.355835 838.012878,1003.567261 865.806030,1013.877930 
	C918.769470,1033.526489 973.518311,1040.739014 1029.767334,1036.766479 
	C1062.009033,1034.489380 1093.460571,1028.529297 1123.116333,1015.032593 
	C1177.513184,990.276123 1211.451660,950.016296 1216.301758,888.996277 
	C1219.056885,854.333984 1212.937134,821.431824 1189.119751,794.135254 
	C1172.803467,775.435486 1153.470947,760.317810 1130.375122,751.104309 
	C1110.485352,743.169800 1090.172607,736.028198 1069.579102,730.184448 
	C1034.064575,720.106628 998.132141,711.512024 962.485474,701.886230 
	C945.106628,697.193481 928.211182,691.004272 913.047668,680.947144 
	C898.059692,671.006531 884.690369,659.516663 880.008789,641.172424 
	C873.178223,614.407349 878.486145,590.247742 897.277466,569.684937 
	C915.813538,549.401367 940.070190,540.271423 966.421692,536.023621 
	C1025.216064,526.546082 1081.511963,535.187866 1135.284912,560.452454 
	C1146.072754,565.520996 1156.396851,571.576355 1167.204834,577.320312 
	C1167.556519,576.661072 1167.988281,575.993713 1168.286865,575.271301 
	C1176.291870,555.900513 1184.213135,536.494568 1192.351440,517.180054 
	C1193.588867,514.243469 1192.536499,513.130981 1190.310547,511.643799 
	C1169.939453,498.034180 1147.832520,488.153656 1124.492676,480.963196 
	C1069.476929,464.014160 1013.407776,460.070557 956.526123,468.226532 
	C921.802612,473.205322 889.333435,484.521423 859.815369,505.305420 
z"/>
<path fill="#FFFEFE" opacity="1.000000" stroke="none" 
	d="
M860.108521,505.099823 
	C889.333435,484.521423 921.802612,473.205322 956.526123,468.226532 
	C1013.407776,460.070557 1069.476929,464.014160 1124.492676,480.963196 
	C1147.832520,488.153656 1169.939453,498.034180 1190.310547,511.643799 
	C1192.536499,513.130981 1193.588867,514.243469 1192.351440,517.180054 
	C1184.213135,536.494568 1176.291870,555.900513 1168.286865,575.271301 
	C1167.988281,575.993713 1167.556519,576.661072 1167.204834,577.320312 
	C1156.396851,571.576355 1146.072754,565.520996 1135.284912,560.452454 
	C1081.511963,535.187866 1025.216064,526.546082 966.421692,536.023621 
	C940.070190,540.271423 915.813538,549.401367 897.277466,569.684937 
	C878.486145,590.247742 873.178223,614.407349 880.008789,641.172424 
	C884.690369,659.516663 898.059692,671.006531 913.047668,680.947144 
	C928.211182,691.004272 945.106628,697.193481 962.485474,701.886230 
	C998.132141,711.512024 1034.064575,720.106628 1069.579102,730.184448 
	C1090.172607,736.028198 1110.485352,743.169800 1130.375122,751.104309 
	C1153.470947,760.317810 1172.803467,775.435486 1189.119751,794.135254 
	C1212.937134,821.431824 1219.056885,854.333984 1216.301758,888.996277 
	C1211.451660,950.016296 1177.513184,990.276123 1123.116333,1015.032593 
	C1093.460571,1028.529297 1062.009033,1034.489380 1029.767334,1036.766479 
	C973.518311,1040.739014 918.769470,1033.526489 865.806030,1013.877930 
	C838.012878,1003.567261 811.831909,990.355835 789.078735,970.949097 
	C785.770935,968.127686 785.565491,966.001526 787.396057,962.247192 
	C796.577698,943.415955 805.449890,924.433777 814.460571,905.441956 
	C815.129150,905.653442 815.690796,905.672546 816.022278,905.958496 
	C848.140259,933.667969 885.883667,950.152588 926.492188,960.477966 
	C970.395264,971.641052 1014.749573,972.936768 1059.223633,963.976379 
	C1079.403076,959.910767 1098.175903,952.376404 1113.667603,938.296753 
	C1137.026367,917.066956 1143.020508,890.802490 1134.973755,860.981934 
	C1131.062622,846.487793 1121.009277,836.316956 1109.310791,827.519409 
	C1093.177734,815.386719 1074.740479,808.296631 1055.543335,803.109741 
	C1021.341492,793.868652 986.855835,785.641418 952.813232,775.861206 
	C929.675537,769.213928 906.505615,762.015259 884.401123,752.596375 
	C853.862549,739.583618 828.980591,718.911682 812.718140,689.264221 
	C804.506042,674.292969 800.915466,657.863342 799.456726,640.967590 
	C795.975037,600.640381 804.823914,563.651917 831.109192,532.202271 
	C839.456055,522.215454 850.179443,514.214844 860.108521,505.099823 
z"/>
</svg>